<svg xmlns="http://www.w3.org/2000/svg" width="560" height="560" viewBox="0 0 560 560"><g id="Group_234" data-name="Group 234" transform="translate(7798 -3859)"><rect id="Image_19" data-name="Image 19" width="560" height="560" transform="translate(-7798 3859)" fill="none"></rect><g id="XMLID_141_" transform="translate(-7739.305 3942.026)"><g id="XMLID_142_" transform="translate(8.8 292.64)"><path id="XMLID_160_" d="M104.919,379.641a7.479,7.479,0,0,1-.086-1.554c0-4.4,1.468-7.856,4.4-10.273a14.473,14.473,0,0,1,9.669-3.712c4.662,0,7.942,1.727,9.755,5.266Zm34.015-6.216a16.148,16.148,0,0,0-5.871-12.691c-3.885-3.281-8.719-4.835-14.59-4.835a23.278,23.278,0,0,0-10.532,2.417A20.336,20.336,0,0,0,99.567,366,21.457,21.457,0,0,0,96.2,378c0,6.561,2.158,11.914,6.475,15.885a22.055,22.055,0,0,0,15.626,6.043,24.286,24.286,0,0,0,18.043-7.856l-5.266-5.871a14.841,14.841,0,0,1-11.827,5.612,13.8,13.8,0,0,1-11.4-5.18l31.166-13.122Z" transform="translate(-20.746 -339.756)" fill="#27245d"></path><path id="XMLID_138_" d="M81.835,358.49a17.856,17.856,0,0,0-5.871,6.561v-8.633H66.9v42.82h8.978v-18.3c0-4.835,1.122-8.806,3.367-11.655,2.245-2.935,5.612-4.317,10.014-4.317h.518l-.086-9.065a13.768,13.768,0,0,0-7.856,2.59" transform="translate(-16.741 -339.756)" fill="#27245d"></path><path id="XMLID_137_" d="M178.257,377.469a24.342,24.342,0,0,0-4.058-2.245c-1.295-.518-2.59-1.036-3.885-1.468-1.381-.432-2.849-.863-4.662-1.295a18.221,18.221,0,0,1-4.058-1.381,3.128,3.128,0,0,1-2.072-3.022,3.92,3.92,0,0,1,1.986-3.54,10.56,10.56,0,0,1,5.266-1.209,19.824,19.824,0,0,1,11.309,3.453l3.367-6.648a24.692,24.692,0,0,0-13.986-4.317c-4.921,0-8.978,1.209-12,3.54a11.388,11.388,0,0,0-4.662,9.5c0,5.612,4.489,9.669,13.381,12.086.173.086.518.173.95.345,5.7,1.727,8.547,3.626,8.547,5.784a4.3,4.3,0,0,1-1.727,3.54,7.492,7.492,0,0,1-4.835,1.381c-4.662,0-9.5-1.9-14.5-5.612l-4.317,6.993a28.356,28.356,0,0,0,8.892,4.748,30.521,30.521,0,0,0,9.669,1.727,17.259,17.259,0,0,0,11.309-3.626,12.022,12.022,0,0,0,4.4-9.755c.086-4.058-1.381-6.993-4.317-8.978" transform="translate(-27.868 -339.742)" fill="#27245d"></path><path id="XMLID_155_" d="M40.052,369.144c-1.9,1.986-5.525,3.022-10.705,3.022H18.3V349.633h9.669c5.18,0,8.892.777,11.309,2.417s3.626,4.317,3.626,8.2c0,3.971-.95,6.907-2.849,8.892m6.734-23.223Q40.958,341,28.138,341H8.8v56.2h9.5V380.712H28.311c8.288,0,14.417-1.554,18.389-4.748s5.957-8.115,5.957-14.935c0-6.734-1.986-11.827-5.871-15.108" transform="translate(-8.8 -337.719)" fill="#27245d"></path><path id="XMLID_134_" d="M210.108,390.123a5.668,5.668,0,0,1-4.489-1.813,7.267,7.267,0,0,1-1.64-4.835V361.72H215.2v-7.252H203.978V341H195v42.13c0,4.489,1.381,8.115,4.058,10.705a13.345,13.345,0,0,0,9.842,3.971,15.491,15.491,0,0,0,10.532-4.23l-3.712-6.389c-1.813,1.986-3.712,2.935-5.612,2.935" transform="translate(-34.251 -337.719)" fill="#27245d"></path><path id="XMLID_151_" d="M255.252,388.1a11.963,11.963,0,0,1-8.978,3.885,12.664,12.664,0,0,1-9.237-3.885,13.525,13.525,0,0,1-3.971-10.014,14.351,14.351,0,0,1,3.885-10.273,12.153,12.153,0,0,1,9.237-4.144,11.548,11.548,0,0,1,9.065,4.144A14.533,14.533,0,0,1,258.964,378a13.9,13.9,0,0,1-3.712,10.1m3.54-24.173c-3.626-5.353-8.288-8.029-13.9-8.029a20.555,20.555,0,0,0-14.676,5.957c-4.144,3.971-6.216,9.237-6.216,15.885s1.986,12,6.043,16.058a19.368,19.368,0,0,0,14.158,6.13,18.36,18.36,0,0,0,8.029-1.986,16.684,16.684,0,0,0,6.561-5.7v6.993h8.978v-42.82h-8.978Z" transform="translate(-38.215 -339.756)" fill="#27245d"></path><path id="XMLID_148_" d="M424.3,388.015a13.079,13.079,0,0,1-9.669,3.885,12.945,12.945,0,0,1-9.669-3.885c-2.59-2.59-3.8-5.957-3.8-10.1a13.952,13.952,0,0,1,3.8-10.1,13.975,13.975,0,0,1,19.338,0,13.952,13.952,0,0,1,3.8,10.1c0,4.144-1.209,7.511-3.8,10.1M414.633,355.9a21.8,21.8,0,0,0-16.058,6.389,22.093,22.093,0,0,0,0,31.252,23.375,23.375,0,0,0,32.115,0,22.093,22.093,0,0,0,0-31.252,21.733,21.733,0,0,0-16.058-6.389" transform="translate(-61.192 -339.756)" fill="#e2066f"></path><path id="XMLID_145_" d="M481.234,388.015A12.664,12.664,0,0,1,472,391.9a11.831,11.831,0,0,1-8.978-3.885A13.826,13.826,0,0,1,459.306,378a14.533,14.533,0,0,1,3.712-10.187,12.008,12.008,0,0,1,9.065-4.058,12.372,12.372,0,0,1,9.237,4.058A14.144,14.144,0,0,1,485.205,378a13.867,13.867,0,0,1-3.971,10.014m6.82-26.158a20.269,20.269,0,0,0-14.676-5.957c-5.7,0-10.36,2.676-13.9,8.115V356.5H450.5v58.36h8.978V392.85c4.317,4.748,9.151,7.079,14.5,7.079a19.27,19.27,0,0,0,14.158-6.216c4.058-4.144,6.043-9.5,6.043-16.058s-2.072-11.914-6.13-15.8" transform="translate(-69.174 -339.756)" fill="#e2066f"></path><path id="XMLID_127_" d="M364.123,353.344a16.669,16.669,0,0,0-8.374,2.245,14.088,14.088,0,0,0-5.87,6.216V337.2H340.9v59.569h8.978V373.632c0-3.971,1.122-6.993,3.453-9.065a11.79,11.79,0,0,1,8.115-3.108c6.561,0,9.842,3.971,9.842,11.827v23.482h8.978V370.524c0-5.612-1.468-9.842-4.489-12.777q-4.4-4.4-11.655-4.4" transform="translate(-54.194 -337.2)" fill="#e2066f"></path><path id="XMLID_126_" d="M322.194,370.061c-2.935-2.5-7.252-4.489-13.036-5.871s-9.5-2.676-11.309-3.885a6.06,6.06,0,0,1-2.676-5.266,5.586,5.586,0,0,1,2.676-5.094,12.472,12.472,0,0,1,6.82-1.727,26.335,26.335,0,0,1,8.374,1.468,17.825,17.825,0,0,1,6.734,3.712l5.094-7.165a28.362,28.362,0,0,0-9.151-5.007,32.7,32.7,0,0,0-10.705-1.727c-5.612,0-10.273,1.381-14.072,4.23s-5.7,6.82-5.7,12,1.64,9.065,5.007,11.568a20.493,20.493,0,0,0,5.7,3.281,79.706,79.706,0,0,0,9.41,2.763c4.144.95,6.993,2.072,8.719,3.281a5.823,5.823,0,0,1,2.5,5.094,6.277,6.277,0,0,1-2.676,5.266,12.233,12.233,0,0,1-7.252,1.986c-6.13,0-12-2.5-17.7-7.424L283,388.709a34.222,34.222,0,0,0,23.4,9.065c6.043,0,10.878-1.554,14.59-4.576a14.577,14.577,0,0,0,5.525-11.914c0-4.921-1.381-8.719-4.317-11.223" transform="translate(-46.279 -337.514)" fill="#e2066f"></path></g><g id="Group_198" data-name="Group 198" transform="translate(91.678 11.2)"><path id="XMLID_125_" d="M188.8,210.194c2.072-.95,4.144-1.727,6.3-2.59,2.417-.863,4.835-1.727,7.252-2.5,3.022-.95,6.13-1.727,9.237-2.417,4.23-.863,8.46-1.554,12.691-1.986-2.417,7.511-5.007,15.022-7.942,22.446.086,1.468.173,2.849.259,4.317a93.344,93.344,0,0,1,35.741,0,35.145,35.145,0,0,1,.259-4.317c-2.849-7.424-5.525-14.935-7.942-22.446a104.838,104.838,0,0,1,12.691,1.986c3.108.691,6.13,1.468,9.237,2.417,2.417.777,4.835,1.554,7.252,2.5,2.158.777,4.23,1.64,6.3,2.59a112.364,112.364,0,0,1,39.022,28.835,129.67,129.67,0,1,0-169.382,0A112.364,112.364,0,0,1,188.8,210.194Z" transform="translate(-104.8 -11.2)" fill="#a0dbe8"></path><path id="XMLID_124_" d="M211.631,263.706a90.075,90.075,0,0,1,19.166-6.043,35.138,35.138,0,0,0-.259-4.317c2.849-7.424,5.525-14.935,7.942-22.446a104.836,104.836,0,0,0-12.691,1.986c-3.108.691-6.13,1.468-9.237,2.417-2.417.777-4.835,1.554-7.252,2.5l9.41,2.331Z" transform="translate(-119.084 -41.23)" fill="#525353"></path><path id="XMLID_123_" d="M182.181,279.068a68.508,68.508,0,0,0,.345-7.338,2.69,2.69,0,0,1,2.676-2.676h2.331l8.288-27.453A112.364,112.364,0,0,0,156.8,270.435a129.606,129.606,0,0,0,19.511,13.986C178.3,282.607,180.2,280.794,182.181,279.068Z" transform="translate(-111.908 -42.693)" fill="#525353"></path><path id="XMLID_122_" d="M307.8,241.7l8.288,27.453h2.331a2.69,2.69,0,0,1,2.676,2.676c0,2.5.173,4.921.345,7.338,1.986,1.727,3.971,3.453,5.784,5.353a125.378,125.378,0,0,0,19.511-13.986A111.269,111.269,0,0,0,307.8,241.7Z" transform="translate(-132.547 -42.706)" fill="#525353"></path><path id="XMLID_121_" d="M286.37,239.937l9.41-2.331c-2.417-.863-4.835-1.727-7.252-2.5-3.022-.95-6.13-1.727-9.237-2.417-4.23-.863-8.46-1.554-12.691-1.986,2.417,7.511,5.007,15.022,7.943,22.446-.086,1.468-.173,2.849-.259,4.317a88.546,88.546,0,0,1,19.166,6.043Z" transform="translate(-126.916 -41.203)" fill="#525353"></path><path id="XMLID_120_" d="M252,271.641h18.3a78.409,78.409,0,0,1-.432-10.014,93.344,93.344,0,0,0-35.741,0,77.742,77.742,0,0,1-.432,10.014Z" transform="translate(-122.419 -45.194)"></path><path id="XMLID_119_" d="M179.5,290.353c1.468.863,3.022,1.727,4.576,2.59A80.018,80.018,0,0,0,185.284,285C183.3,286.727,181.4,288.54,179.5,290.353Z" transform="translate(-115.011 -48.625)"></path><path id="XMLID_118_" d="M210.6,271.914h20.029a78.411,78.411,0,0,0,.432-10.014,88.547,88.547,0,0,0-19.166,6.043Z" transform="translate(-119.261 -45.467)"></path><path id="XMLID_117_" d="M323.7,285a80.018,80.018,0,0,0,1.209,7.943c1.554-.777,3.022-1.64,4.576-2.59C327.585,288.54,325.686,286.727,323.7,285Z" transform="translate(-134.721 -48.625)"></path><path id="XMLID_116_" d="M296.071,271.914l-1.209-3.971A90.074,90.074,0,0,0,275.7,261.9a77.739,77.739,0,0,0,.432,10.014Z" transform="translate(-128.156 -45.467)"></path><path id="XMLID_115_" d="M208.126,268.743l1.209-3.971,7.166-23.741-9.41-2.331c-2.158.777-4.23,1.64-6.3,2.59L192.5,268.743h15.626Z" transform="translate(-116.787 -42.296)" fill="#aa9678"></path><path id="XMLID_114_" d="M296.766,264.772l1.209,3.971H313.6l-8.288-27.453c-2.072-.95-4.144-1.727-6.3-2.59l-9.41,2.331Z" transform="translate(-130.06 -42.296)" fill="#aa9678"></path><path id="XMLID_113_" d="M192.8,279.873c.086-.086.173-.086.259-.173H192.8Z" transform="translate(-116.828 -47.9)" fill="#c0b098"></path><path id="XMLID_112_" d="M246.1,279.7H192.745c-.086.086-.173.086-.259.173a76.863,76.863,0,0,1-1.986,14.849,128.7,128.7,0,0,0,55.6,12.518V279.7Z" transform="translate(-116.514 -47.9)" fill="#c0b098"></path><path id="XMLID_111_" d="M317.059,279.7H316.8c.086.086.173.086.259.173Z" transform="translate(-133.778 -47.9)" fill="#aa9678"></path><path id="XMLID_110_" d="M308.339,279.7H254.9v27.54a128.98,128.98,0,0,0,55.6-12.518,77.773,77.773,0,0,1-1.986-14.849A.186.186,0,0,0,308.339,279.7Z" transform="translate(-125.317 -47.9)" fill="#aa9678"></path><rect id="XMLID_109_" height="2.676" transform="translate(129.583 229.123)" fill="#786453"></rect><path id="XMLID_108_" d="M304.7,283.414a68.512,68.512,0,0,1-.345-7.338,2.69,2.69,0,0,0-2.676-2.676H188.93a2.69,2.69,0,0,0-2.676,2.676c0,2.5-.173,4.921-.345,7.338a80.02,80.02,0,0,1-1.209,7.943c1.64.863,3.281,1.727,4.921,2.5a77.774,77.774,0,0,0,1.986-14.849v-.173h107.31v.173a76.863,76.863,0,0,0,1.986,14.849c1.64-.777,3.281-1.64,4.921-2.5A79.917,79.917,0,0,1,304.7,283.414Z" transform="translate(-115.721 -47.039)" fill="#8b7460"></path><g id="Group_197" data-name="Group 197" transform="translate(38.849 38.935)"><path id="XMLID_107_" d="M305.5,138.6h0a104.379,104.379,0,0,1,4.4,14.245c0,.345-.086.691-.086,1.036-.086.518-.173.95-.259,1.381.173-.6.259-1.381.432-2.245-.95-4.921-2.849-9.669-4.489-14.417Z" transform="translate(-171.082 -67.549)" fill="none"></path><path id="XMLID_106_" d="M349.159,172.6c-.086,0-.173.086-.259.086A.317.317,0,0,1,349.159,172.6Z" transform="translate(-177.014 -72.197)" fill="none"></path><path id="XMLID_105_" d="M350.159,171.8l-.259.259Z" transform="translate(-177.151 -72.087)" fill="none"></path><path id="XMLID_104_" d="M299.51,133.62a78.9,78.9,0,0,0-9.41-6.82h0A70.318,70.318,0,0,1,299.51,133.62Z" transform="translate(-168.977 -65.936)" fill="none"></path><path id="XMLID_103_" d="M335.8,170.6Z" transform="translate(-175.224 -71.923)" fill="none"></path><path id="XMLID_102_" d="M342.1,178.6c.086.086.173.259.259.345C342.359,178.773,342.186,178.686,342.1,178.6Z" transform="translate(-176.085 -73.017)" fill="none"></path><path id="XMLID_101_" d="M310.059,158.2a8.966,8.966,0,0,1-.259,1.036Z" transform="translate(-171.67 -70.228)" fill="none"></path><path id="XMLID_100_" d="M294.771,212.494a32.923,32.923,0,0,0-3.971,9.41,31.945,31.945,0,0,1,3.971-9.41c.691-1.122,1.295-2.158,1.9-3.194-.6.95-1.209,2.072-1.9,3.194Z" transform="translate(-169.073 -77.213)" fill="none"></path><path id="XMLID_99_" d="M305.5,138.491c.086-.259.259-.432.345-.691h0a2.585,2.585,0,0,0-.345.691l2.331,2.072Z" transform="translate(-171.082 -67.44)" fill="none"></path><path id="XMLID_98_" d="M275.7,158.3Z" transform="translate(-167.009 -70.242)" fill="none"></path><path id="XMLID_97_" d="M274.6,155.8Z" transform="translate(-166.858 -69.9)" fill="none"></path><path id="XMLID_96_" d="M284.632,123.659a1.887,1.887,0,0,1-.432-.259C284.373,123.486,284.459,123.573,284.632,123.659Z" transform="translate(-168.171 -65.472)" fill="none"></path><path id="XMLID_95_" d="M285.418,124.045c-.173-.086-.345-.259-.518-.345C284.986,123.873,285.245,123.959,285.418,124.045Z" transform="translate(-168.266 -65.513)" fill="none"></path><path id="XMLID_94_" d="M290.4,136.2v0Z" transform="translate(-169.018 -67.221)" fill="none"></path><path id="XMLID_93_" d="M275.2,157Z" transform="translate(-166.94 -70.064)" fill="none"></path><path id="XMLID_92_" d="M348.3,186.5c.173.173.345.432.518.6C348.645,186.932,348.473,186.673,348.3,186.5Z" transform="translate(-176.932 -74.097)" fill="none"></path><path id="XMLID_91_" d="M290.373,140.9c0,1.381-.086,2.763-.173,4.058C290.286,143.663,290.373,142.281,290.373,140.9Z" transform="translate(-168.991 -67.864)" fill="none"></path><path id="XMLID_90_" d="M276.1,159.7Z" transform="translate(-167.064 -70.433)" fill="none"></path><path id="XMLID_89_" d="M289.349,126.34c-.432-.259-1.727-.95-2.849-1.64C287.622,125.3,288.831,125.995,289.349,126.34Z" transform="translate(-168.485 -65.649)" fill="none"></path><path id="XMLID_88_" d="M286.277,124.532a3.5,3.5,0,0,0-.777-.432A3.5,3.5,0,0,0,286.277,124.532Z" transform="translate(-168.348 -65.567)" fill="none"></path><path id="XMLID_87_" d="M290,126.7Z" transform="translate(-168.963 -65.923)" fill="none"></path><path id="XMLID_86_" d="M353.3,163.118v-.259h0v.259Z" transform="translate(-177.616 -70.83)" fill="none"></path><path id="XMLID_85_" d="M328.7,162.3c.086.173.259.259.345.432h0c0-.086-.173-.259-.345-.432Z" transform="translate(-174.253 -70.789)" fill="none"></path><path id="XMLID_84_" d="M308.2,141c1.727,1.554,3.453,3.194,5.094,4.835C311.567,144.194,309.927,142.554,308.2,141Z" transform="translate(-171.451 -67.877)" fill="none"></path><path id="XMLID_83_" d="M347.3,152.4a3.671,3.671,0,0,1,.95.173A4.454,4.454,0,0,0,347.3,152.4Z" transform="translate(-176.796 -69.436)" fill="none"></path><path id="XMLID_82_" d="M341.486,159.9c0,.173-.086.259-.086.432C341.4,160.159,341.486,160.073,341.486,159.9Z" transform="translate(-175.989 -70.461)" fill="none"></path><path id="XMLID_81_" d="M348.7,152.7a2.164,2.164,0,0,1,.6.345C349.132,152.959,348.873,152.786,348.7,152.7Z" transform="translate(-176.987 -69.477)" fill="none"></path><path id="XMLID_80_" d="M351,154.7c.086.086.173.173.173.259C351.086,154.873,351.086,154.786,351,154.7Z" transform="translate(-177.301 -69.75)" fill="none"></path><path id="XMLID_79_" d="M353.2,160.573h0v0Z" transform="translate(-177.602 -70.529)" fill="none"></path><path id="XMLID_78_" d="M353.2,164.99h0v0Z" transform="translate(-177.602 -71.148)" fill="none"></path><path id="XMLID_77_" d="M343.3,154.959c.086-.086.173-.173.173-.259C343.473,154.786,343.386,154.873,343.3,154.959Z" transform="translate(-176.249 -69.75)" fill="none"></path><path id="XMLID_76_" d="M346.2,152.573a3.1,3.1,0,0,1,.95-.173A3.1,3.1,0,0,0,346.2,152.573Z" transform="translate(-176.645 -69.436)" fill="none"></path><path id="XMLID_75_" d="M319.117,151.8c-.777-.863-1.64-1.64-2.417-2.5A33.093,33.093,0,0,1,319.117,151.8Z" transform="translate(-172.613 -69.012)" fill="none"></path><path id="XMLID_74_" d="M346.576,119.6h0v12L342,152.751v.086h0l4.576-21.151V119.6Z" transform="translate(-176.071 -64.952)" fill="none"></path><path id="XMLID_73_" d="M324.295,157.281c-.432-.432-.863-.95-1.295-1.381C323.518,156.418,323.863,156.85,324.295,157.281Z" transform="translate(-173.474 -69.914)" fill="none"></path><path id="XMLID_72_" d="M352.6,158.1c.086.173.086.345.173.518h0a.926.926,0,0,0-.173-.518Z" transform="translate(-177.52 -70.215)" fill="none"></path><path id="XMLID_71_" d="M341.2,162.659h0V162.4C341.286,162.573,341.2,162.573,341.2,162.659Z" transform="translate(-175.962 -70.802)" fill="none"></path><path id="XMLID_70_" d="M345.2,153.045a2.164,2.164,0,0,1,.6-.345A3.75,3.75,0,0,0,345.2,153.045Z" transform="translate(-176.509 -69.477)" fill="none"></path><path id="XMLID_69_" d="M344.1,153.9a2.327,2.327,0,0,1,.691-.6A4.933,4.933,0,0,0,344.1,153.9Z" transform="translate(-176.358 -69.559)" fill="none"></path><path id="XMLID_68_" d="M352.732,166.9h0a7.594,7.594,0,0,1-.432,1.295,4.549,4.549,0,0,0,.432-1.295Z" transform="translate(-177.479 -71.418)" fill="none"></path><path id="XMLID_67_" d="M169.8,157.963c.173-.259.432-.6.6-.863A7.467,7.467,0,0,1,169.8,157.963Z" transform="translate(-152.534 -70.078)" fill="none"></path><path id="XMLID_66_" d="M349.7,153.3c.259.173.432.432.691.6C350.132,153.732,349.959,153.473,349.7,153.3Z" transform="translate(-177.124 -69.559)" fill="none"></path><path id="XMLID_65_" d="M174.1,151.845c.086-.086.173-.259.259-.345A1.192,1.192,0,0,0,174.1,151.845Z" transform="translate(-153.121 -69.313)" fill="none"></path><path id="XMLID_64_" d="M276.4,162.686h0v0Z" transform="translate(-167.105 -70.83)" fill="none"></path><path id="XMLID_63_" d="M163.191,170.1c-.259.432-.432.95-.691,1.381C162.759,171.05,162.932,170.618,163.191,170.1Z" transform="translate(-151.536 -71.855)" fill="none"></path><path id="XMLID_62_" d="M159.986,177.8c0,.086-.086.173-.086.259C159.9,177.973,159.986,177.886,159.986,177.8Z" transform="translate(-151.181 -72.907)" fill="none"></path><path id="XMLID_61_" d="M351,123.2Z" transform="translate(-177.301 -65.444)" fill="none"></path><path id="XMLID_60_" d="M189.7,135.1Z" transform="translate(-155.254 -67.071)" fill="none"></path><path id="XMLID_59_" d="M183.8,140.377l.777-.777Z" transform="translate(-154.447 -67.686)" fill="none"></path><path id="XMLID_58_" d="M178.5,146.15c.259-.345.518-.6.777-.95C179.018,145.545,178.759,145.8,178.5,146.15Z" transform="translate(-153.723 -68.451)" fill="none"></path><path id="XMLID_57_" d="M351.876,154.751,347.3,133.6Z" transform="translate(-176.796 -66.866)" fill="none"></path><path id="XMLID_56_" d="M259.359,176.586c-.086,0-.173-.086-.259-.086A.317.317,0,0,0,259.359,176.586Z" transform="translate(-164.74 -72.73)" fill="none"></path><path id="XMLID_55_" d="M260.759,176.786a.317.317,0,0,1-.259-.086A.317.317,0,0,0,260.759,176.786Z" transform="translate(-164.931 -72.757)" fill="none"></path><path id="XMLID_54_" d="M166.463,163.6c-.259.518-.6,1.036-.863,1.64C165.859,164.722,166.118,164.2,166.463,163.6Z" transform="translate(-151.96 -70.966)" fill="none"></path><path id="XMLID_53_" d="M255.4,175.1Z" transform="translate(-164.234 -72.538)" fill="none"></path><path id="XMLID_52_" d="M257.973,176.186c-.086,0-.086,0-.173-.086C257.886,176.186,257.886,176.186,257.973,176.186Z" transform="translate(-164.562 -72.675)" fill="none"></path><path id="XMLID_51_" d="M256.6,175.7Z" transform="translate(-164.398 -72.62)" fill="none"></path><path id="XMLID_50_" d="M249.2,168.1Z" transform="translate(-163.387 -71.582)" fill="none"></path><path id="XMLID_49_" d="M248.486,159.5c0,.086-.086.173-.086.259A.317.317,0,0,0,248.486,159.5Z" transform="translate(-163.277 -70.406)" fill="none"></path><path id="XMLID_48_" d="M250,155.8Z" transform="translate(-163.496 -69.9)" fill="none"></path><path id="XMLID_47_" d="M254.7,150.9Z" transform="translate(-164.138 -69.231)" fill="none"></path><path id="XMLID_46_" d="M248.886,158.2c0,.086-.086.086-.086.173A.3.3,0,0,0,248.886,158.2Z" transform="translate(-163.332 -70.228)" fill="none"></path><path id="XMLID_45_" d="M249.386,157a.085.085,0,0,1-.086.086Z" transform="translate(-163.4 -70.064)" fill="none"></path><path id="XMLID_44_" d="M265.09,148.9Z" transform="translate(-165.55 -68.957)" fill="none"></path><path id="XMLID_43_" d="M267.6,149.7Z" transform="translate(-165.902 -69.067)" fill="none"></path><path id="XMLID_42_" d="M257,149.6Z" transform="translate(-164.453 -69.053)" fill="none"></path><path id="XMLID_41_" d="M259.594,148.9Z" transform="translate(-164.802 -68.957)" fill="none"></path><path id="XMLID_40_" d="M276.3,161.1Z" transform="translate(-167.091 -70.625)" fill="none"></path><path id="XMLID_39_" d="M262.4,117.118v0Z" transform="translate(-165.191 -64.542)" fill="none"></path><path id="XMLID_38_" d="M262.4,116.245v0Z" transform="translate(-165.191 -64.447)" fill="none"></path><path id="XMLID_37_" d="M262.4,115.69Z" transform="translate(-165.191 -64.409)" fill="none"></path><path id="XMLID_36_" d="M262.4,118.909v0Z" transform="translate(-165.191 -64.693)" fill="none"></path><path id="XMLID_35_" d="M351.332,170.3c-.173.173-.259.432-.432.6A2.623,2.623,0,0,0,351.332,170.3Z" transform="translate(-177.288 -71.882)" fill="none"></path><path id="XMLID_34_" d="M248.286,161a.317.317,0,0,1-.086.259A.317.317,0,0,1,248.286,161Z" transform="translate(-163.25 -70.611)" fill="none"></path><path id="XMLID_33_" d="M248.4,165.5Z" transform="translate(-163.277 -71.226)" fill="none"></path><path id="XMLID_32_" d="M352.132,168.8a4.032,4.032,0,0,1-.432.863A8.027,8.027,0,0,0,352.132,168.8Z" transform="translate(-177.397 -71.677)" fill="none"></path><path id="XMLID_31_" d="M297.709,251.768c-.432-.432-.777-.95-1.209-1.468.432.6.863,1.036,1.209,1.468Z" transform="translate(-169.852 -82.817)" fill="#525353"></path><path id="XMLID_30_" d="M300.922,255.035h0A29.466,29.466,0,0,1,297.9,252.1h0A29.466,29.466,0,0,0,300.922,255.035Z" transform="translate(-170.043 -83.063)" fill="#aa9678"></path><circle id="XMLID_29_" transform="translate(170.497 54.643) rotate(-4.571)" fill="#fff"></circle><path id="XMLID_28_" d="M353.3,162.8Z" transform="translate(-177.616 -70.857)" fill="#fff"></path><path id="XMLID_27_" d="M353.861,126.866h0a43.612,43.612,0,0,0-3.367-4.144h0c-.518-.6-1.036-1.122-1.554-1.64-.173-.173-.432-.345-.6-.518a9.142,9.142,0,0,0-1.036-.863h0v12.086l4.576,21.151h0c.086.173.086.345.173.518l3.194,3.626h3.367v-.95h0a91.723,91.723,0,0,0-4.576-28.576h0A3.917,3.917,0,0,0,353.861,126.866Z" transform="translate(-176.796 -64.966)" fill="#bbbcbd"></path><path id="XMLID_26_" d="M353.3,162.8Z" transform="translate(-177.616 -70.857)" fill="#bbbcbd"></path><path id="XMLID_25_" d="M353.159,160.227v.173h0a9.379,9.379,0,0,1,.086,1.554v.259h0v.259a7.9,7.9,0,0,1-.086,1.468h0v.173l-.259,1.554h0l3.194-3.54L352.9,158.5h0C352.986,159.1,353.073,159.622,353.159,160.227Z" transform="translate(-177.561 -70.269)" fill="#676a6a"></path><path id="Path_5832" data-name="Path 5832" d="M351.487,163.464v-.173a8.878,8.878,0,0,0,.086-1.468v-.691a9.383,9.383,0,0,0-.086-1.554v-.173l-.259-1.554c-.086-.173-.086-.345-.173-.518a10.92,10.92,0,0,0-1.209-2.676c-.086-.086-.173-.173-.173-.259-.173-.173-.259-.345-.432-.518a2.327,2.327,0,0,0-.691-.6c-.086-.086-.173-.086-.259-.173a2.164,2.164,0,0,0-.6-.345c-.086,0-.173-.086-.259-.086a3.1,3.1,0,0,0-.95-.173,3.672,3.672,0,0,0-.95.173c-.086,0-.173.086-.259.086a2.164,2.164,0,0,0-.6.345c-.086.086-.173.086-.259.173-.259.173-.432.432-.691.6-.173.173-.259.345-.432.518-.086.086-.173.173-.173.259a8.443,8.443,0,0,0-1.209,2.676v.086a7.309,7.309,0,0,0-.345,1.468c0,.173-.086.259-.086.432-.086.6-.086,1.122-.173,1.727v.259h0c0,4.921,2.331,8.978,5.18,8.978a4.538,4.538,0,0,0,1.468-.345c.086,0,.173-.086.259-.086.173-.086.345-.259.518-.345l.259-.259a5.208,5.208,0,0,0,.691-.691,3.655,3.655,0,0,0,.432-.6c.086-.173.173-.259.259-.432a8.027,8.027,0,0,0,.432-.863c.086-.086.086-.173.173-.345.173-.432.259-.863.432-1.295C351.4,164.5,351.487,163.982,351.487,163.464Zm-4.835-3.281c-1.122,0-1.986-1.468-1.986-3.367,0-1.813.863-3.367,1.986-3.367s1.986,1.468,1.986,3.367S347.689,160.183,346.653,160.183Z" transform="translate(-175.975 -69.449)"></path><ellipse id="XMLID_22_" cx="1.986" cy="3.367" rx="1.986" ry="3.367" transform="translate(168.691 84)" fill="#fff"></ellipse><path id="XMLID_21_" d="M341.9,154.751h0a10.92,10.92,0,0,1,1.209-2.676c.086-.086.173-.173.173-.259.173-.173.259-.345.432-.518a2.327,2.327,0,0,1,.691-.6c.086-.086.173-.086.259-.173a2.164,2.164,0,0,1,.6-.345c.086,0,.173-.086.259-.086a3.1,3.1,0,0,1,.95-.173,3.672,3.672,0,0,1,.95.173c.086,0,.173.086.259.086a2.164,2.164,0,0,1,.6.345c.086.086.173.086.259.173.259.173.432.432.691.6.173.173.259.345.432.518.086.086.173.173.173.259a8.443,8.443,0,0,1,1.209,2.676h0L346.476,133.6,341.9,154.751Z" transform="translate(-176.057 -66.866)" fill="#909393"></path><path id="Path_5833" data-name="Path 5833" d="M272.518,160.7a6.536,6.536,0,0,0-.086-1.295h0c-.086-.432-.086-.777-.173-1.209h0a4.276,4.276,0,0,0-.345-1.122h0a5.994,5.994,0,0,0-.432-1.122h0l-.518-1.036h0a11.336,11.336,0,0,0-2.158-2.763,13.811,13.811,0,0,0-3.8-2.5h0a20.833,20.833,0,0,0-2.158-.691h-.086a10.619,10.619,0,0,0-4.662,0h-.086a15.749,15.749,0,0,0-2.158.6h-.086a8.7,8.7,0,0,0-1.986,1.036h0a13.45,13.45,0,0,0-1.727,1.381h-.086a14.19,14.19,0,0,0-2.245,2.849h0l-.518,1.036a.085.085,0,0,1-.086.086,4.208,4.208,0,0,0-.345.95c0,.086-.086.086-.086.173-.086.345-.173.6-.259.95,0,.086-.086.173-.086.259-.086.345-.086.6-.173.95a.317.317,0,0,1-.086.259c0,.432-.086.863-.086,1.295a10.715,10.715,0,0,0,.259,2.331v.086a11.169,11.169,0,0,0,.691,2.245h0a13.811,13.811,0,0,0,2.5,3.8,14.188,14.188,0,0,0,2.849,2.245h0l1.036.518h.086a6.553,6.553,0,0,0,.95.345c.086,0,.086,0,.173.086.345.086.6.173.95.259.086,0,.173.086.259.086.345.086.6.086.95.173a.317.317,0,0,1,.259.086c.432,0,.863.086,1.295.086a12.263,12.263,0,0,0,4.748-.95c.691-.345,1.381-.691,2.072-1.122a11.869,11.869,0,0,0,3.281-3.281c.432-.691.777-1.381,1.122-2.072a12.592,12.592,0,0,0,.95-4.748v-.086h0l.086-.173Zm-12.173-1.468a4.576,4.576,0,1,1,4.576-4.576A4.606,4.606,0,0,1,260.345,159.232Z" transform="translate(-163.223 -68.93)"></path><circle id="XMLID_18_" cx="4.576" cy="4.576" r="4.576" transform="translate(92.547 81.151)" fill="#fff"></circle><path id="XMLID_17_" d="M240.841,147.224h0l8.46-25.813v-6.043a72.273,72.273,0,0,0-14.417-1.468c-1.64,0-3.281.086-4.921.173a1.9,1.9,0,0,0-.691.086,70.579,70.579,0,0,0-24.432,6.389A78.842,78.842,0,0,0,186.625,132.2h0c-1.468,1.295-2.935,2.59-4.317,3.971l-.777.777c-1.295,1.295-2.59,2.676-3.8,4.058-.259.345-.518.6-.777.95-1.209,1.468-2.417,2.935-3.54,4.4-.086.086-.173.259-.259.345-1.036,1.468-2.072,2.935-3.108,4.489-.173.259-.432.6-.6.863-.777,1.295-1.554,2.59-2.245,3.885h38.331Z" transform="translate(-152.178 -64.173)" fill="#bbbcbd"></path><path id="XMLID_16_" d="M286.241,144.594c.086-1.036.173-1.986.173-3.022.086-1.381.086-2.676.173-4.058v-4.144c0-2.763-.173-5.439-.259-8.2h0a2763.072,2763.072,0,0,0-.173-.173c-.518-.259-1.727-.95-2.849-1.64h-.086a3.5,3.5,0,0,0-.777-.432h0c-.173-.086-.345-.259-.518-.345l-.086-.086a1.886,1.886,0,0,1-.432-.259c-1.727-.95-3.54-1.727-5.353-2.5A94.929,94.929,0,0,0,262.5,115.5v6.043l8.374,25.727h0a9.574,9.574,0,0,1,2.158,2.763h0l.518,1.036h0a4.337,4.337,0,0,1,.432,1.122h0c.086.345.259.777.345,1.122h0a5.829,5.829,0,0,1,.173,1.209h0a6.534,6.534,0,0,1,.086,1.295h0v.086h10.187a98.8,98.8,0,0,0,1.468-11.309C286.241,144.766,286.241,144.68,286.241,144.594Z" transform="translate(-165.205 -64.392)" fill="#e2dddb"></path><path id="XMLID_15_" d="M305.5,138.6Z" transform="translate(-171.082 -67.549)" fill="#fbb040"></path><path id="XMLID_14_" d="M275.5,194.484c2.331-2.331,4.489-4.489,6.561-6.648,1.209-1.295,2.417-2.59,3.626-3.8,8.547-9.237,14.763-17.957,18.561-29.094a8.953,8.953,0,0,0,.259-1.036v-.173c.086-.432.173-.863.259-1.381,0-.345.086-.691.086-1.036a104.376,104.376,0,0,0-4.4-14.245v.086l-.086-.086c-.345-.259-.6-.6-.95-.863-.95-.863-1.9-1.727-2.935-2.59a78.9,78.9,0,0,0-9.41-6.82h0c.173,2.763.259,5.439.259,8.2v4.144c0,1.381-.086,2.763-.173,4.058-.086,1.036-.086,1.986-.173,3.022v.345c-.345,3.8-.777,7.6-1.468,11.309l-1.209,5.7c-2.5,10.187-7.6,19.338-11.741,28.835-1.122,2.5-2.158,5.094-3.108,7.683l-.259.777c1.295-1.381,2.5-2.59,3.367-3.453C273.689,196.3,274.553,195.347,275.5,194.484Z" transform="translate(-166.12 -65.936)" fill="#fbb040"></path><path id="XMLID_13_" d="M252.6,148.454h0a13.452,13.452,0,0,1,1.727-1.381h0a8.7,8.7,0,0,1,1.986-1.036h.086a8.868,8.868,0,0,1,2.158-.6h.086a10.619,10.619,0,0,1,4.662,0h.086a9.008,9.008,0,0,1,2.158.691h0a12.1,12.1,0,0,1,3.8,2.5h0L260.974,122.9Z" transform="translate(-163.851 -65.403)" fill="#909393"></path><path id="XMLID_12_" d="M244.061,165.968a17.05,17.05,0,0,1-.691-2.245v-.086a10.716,10.716,0,0,1-.259-2.331,6.533,6.533,0,0,1,.086-1.295.317.317,0,0,1,.086-.259,3.672,3.672,0,0,1,.173-.95c0-.086.086-.173.086-.259.086-.345.173-.6.259-.95,0-.086.086-.086.086-.173.086-.345.259-.691.345-.95a.085.085,0,0,1,.086-.086l.518-1.036h0a14.189,14.189,0,0,1,2.245-2.849h0l-35.4,8.719H211.6l35.051,8.547a10.622,10.622,0,0,1-2.59-3.8Z" transform="translate(-158.247 -69.449)" fill="#676a6a"></path><path id="XMLID_11_" d="M336.479,154.044a3.74,3.74,0,0,1,.086-.432,7.311,7.311,0,0,1,.345-1.468v-.173l4.576-21.151V118.735c-3.8-3.108-7.77-4.835-12-4.835-5.353,0-10.273,2.935-13.986,6.561a54.29,54.29,0,0,0-9.755,13.986c-.086.259-.259.432-.345.691l2.331,2.072c1.727,1.554,3.453,3.194,5.094,4.835l2.331,2.331c.777.863,1.64,1.64,2.417,2.5,1.036,1.122,2.072,2.158,3.022,3.281.432.432.863.95,1.295,1.381,1.209,1.381,2.417,2.676,3.626,4.058h0l.432.432h10.446v-.259A12.154,12.154,0,0,1,336.479,154.044Z" transform="translate(-171.068 -64.173)" fill="#e2dddb"></path><path id="XMLID_10_" d="M305.5,138.6Z" transform="translate(-171.082 -67.549)" fill="#e2dddb"></path><path id="XMLID_9_" d="M158.519,161.452c0-.086.086-.173.086-.259.691-1.727,1.381-3.453,2.158-5.18a6.883,6.883,0,0,1,.691-1.381c.6-1.381,1.295-2.676,1.986-3.971.259-.518.518-1.036.863-1.64.173-.259.345-.6.518-.863.777-1.295,1.468-2.59,2.245-3.885.173-.259.432-.6.6-.863a52.032,52.032,0,0,1,3.108-4.489c.086-.086.173-.259.259-.345,1.122-1.554,2.331-3.022,3.54-4.4.259-.345.518-.6.777-.95,1.209-1.381,2.5-2.763,3.8-4.058l.777-.777c1.381-1.381,2.763-2.676,4.317-3.971h0a46.876,46.876,0,0,1,44.72-33.756,46.192,46.192,0,0,1,24.173,6.907,47.5,47.5,0,0,1,17.353,18.907.085.085,0,0,0,.086.086,4.951,4.951,0,0,0,.345.6h0a78.894,78.894,0,0,1,9.41,6.82c1.036.863,1.986,1.727,2.935,2.59.345.259.6.6.95.863h0a2.585,2.585,0,0,1,.345-.691c2.935-18.734,11.223-32.288,20.978-32.288,7.338,0,13.9,7.683,17.871,19.511v.086h0c1.122,1.209,2.245,2.59,3.367,4.058h0a.085.085,0,0,0,.086.086h0c.086.173.086.345.173.518h0l-.173-.6A90.926,90.926,0,0,0,149.8,147.207a90.059,90.059,0,0,0,4.489,28.317v-.086c.6-2.676,1.295-5.353,2.072-7.942C157.052,165.423,157.742,163.437,158.519,161.452Z" transform="translate(-149.8 -56.3)" fill="#525353"></path><path id="XMLID_8_" d="M352.741,162.759l-3.194,3.54h0a7.6,7.6,0,0,1-.432,1.295c0,.086-.086.173-.173.345a4.032,4.032,0,0,1-.432.863c-.086.173-.173.259-.259.432-.173.173-.259.432-.432.6a2.627,2.627,0,0,1-.691.691l-.259.259a1.806,1.806,0,0,1-.518.345c-.086,0-.173.086-.259.086a2.838,2.838,0,0,1-1.468.345c-2.849,0-5.18-3.971-5.18-8.978H329c1.986,2.245,3.885,4.489,5.7,6.82l.086.086,5.439,6.734c.086.086.173.259.259.345,1.727,2.158,3.367,4.317,5.007,6.475.173.173.345.432.518.6,1.727,2.331,3.453,4.662,5.18,6.907v.086a89.522,89.522,0,0,0,4.748-28.144h0l-3.194.259Z" transform="translate(-174.294 -70.816)" fill="#fff"></path><path id="XMLID_7_" d="M232.32,111.626a1.9,1.9,0,0,0,.691-.086c1.64-.086,3.281-.173,4.921-.173a72.274,72.274,0,0,1,14.417,1.468v0a102.247,102.247,0,0,1,13.554,4.23c1.813.777,3.626,1.64,5.353,2.5a.789.789,0,0,1,.432.259.085.085,0,0,1,.086.086,1.806,1.806,0,0,1,.518.345h0c.259.173.518.259.777.432h.086c1.122.6,2.331,1.381,2.849,1.64a.085.085,0,0,1,.086.086l.086.086h0a4.953,4.953,0,0,0-.345-.6.085.085,0,0,0-.086-.086,46.413,46.413,0,0,0-86.245,7.942A75.138,75.138,0,0,1,207.716,118.1,73.191,73.191,0,0,1,232.32,111.626Z" transform="translate(-155.226 -61.726)"></path><line id="XMLID_6_" y2="0.518" transform="translate(97.209 53.525)" fill="none"></line><path id="XMLID_5_" d="M315.669,118.7c3.712-3.626,8.633-6.561,13.986-6.561,4.23,0,8.288,1.727,12,4.835h0c.345.259.691.6,1.036.863.173.173.432.345.6.518.518.518,1.036,1.036,1.554,1.64h0v-.086c-4.058-11.827-10.532-19.511-17.871-19.511-9.755,0-18.043,13.468-20.978,32.288h0A50.076,50.076,0,0,1,315.669,118.7Z" transform="translate(-171.15 -62.328)"></path><path id="XMLID_4_" d="M208.884,246.573c.863.345,1.64.6,2.5.863a91.071,91.071,0,0,0,63.972-1.468c.518-.259,1.122-.432,1.64-.691.863-.345,1.813-.777,2.676-1.209.777-.345,1.554-.691,2.331-1.122-.173,0-.345.086-.518.086h0a36.231,36.231,0,0,1-9.669-.086c-18.734-2.676-22.878-11.741-22.273-21.065a47.487,47.487,0,0,1-4.144-2.676,121.118,121.118,0,0,1-22.964-21.583,124.188,124.188,0,0,0,27.712,15.022c.345.173.691.259,1.036.432.777-2.676,1.727-5.266,2.5-7.511h0l.259-.777c.95-2.59,1.986-5.18,3.108-7.684,4.144-9.5,9.237-18.734,11.741-28.835l1.209-5.7H259.82v.086a12.263,12.263,0,0,1-.95,4.748,15.837,15.837,0,0,1-1.122,2.072,11.868,11.868,0,0,1-3.281,3.281c-.691.432-1.381.777-2.072,1.122a12.593,12.593,0,0,1-4.748.95,6.534,6.534,0,0,1-1.295-.086.317.317,0,0,1-.259-.086,3.671,3.671,0,0,1-.95-.173c-.086,0-.173-.086-.259-.086-.345-.086-.6-.173-.95-.259-.086,0-.086,0-.173-.086-.345-.086-.691-.259-.95-.345h-.086l-1.036-.518h0a11.665,11.665,0,0,1-2.849-2.245L203.791,162.4H165.546c-.173.259-.345.6-.518.863-.259.518-.6,1.036-.863,1.64-.691,1.295-1.381,2.676-1.986,3.971-.259.432-.432.95-.691,1.381-.777,1.727-1.468,3.453-2.158,5.18,0,.086-.086.173-.086.259-.777,1.986-1.468,4.058-2.072,6.13-.777,2.59-1.468,5.266-2.072,7.942A90.483,90.483,0,0,0,188.165,235c.432.345.95.6,1.381.95a77.712,77.712,0,0,0,8.029,5.007A72.537,72.537,0,0,0,208.884,246.573Z" transform="translate(-150.524 -70.802)" fill="#fff"></path><path id="XMLID_3_" d="M290.055,225.583a15.9,15.9,0,0,0-.259,2.849,21.225,21.225,0,0,0,.345,4.748,29.379,29.379,0,0,0,.6,2.935A25.869,25.869,0,0,0,292.214,240a37.332,37.332,0,0,0,1.813,3.281,9.1,9.1,0,0,0,.6.95c.345.432.6.863.95,1.295.432.518.863,1.036,1.209,1.468a21.682,21.682,0,0,0,3.022,2.935v.086a.317.317,0,0,0,.086.259h0c.173,0,.345-.086.518-.086a62.728,62.728,0,0,0,12.173-3.022c2.072-.777,4.144-1.554,6.13-2.417.6-.259,1.209-.6,1.813-.863C341.336,233.784,358.775,216,358.775,216,332.7,228.863,307.063,228.345,290.055,225.583Z" transform="translate(-168.933 -78.129)" fill="#9f2255"></path><path id="XMLID_2_" d="M340.358,179.953c-1.64-2.158-3.367-4.317-5.007-6.475-.086-.086-.173-.259-.259-.345l-5.439-6.734-.086-.086c-1.9-2.331-3.8-4.576-5.7-6.82-.086-.173-.259-.259-.345-.432-1.209-1.381-2.417-2.676-3.626-4.058-.432-.432-.863-.95-1.295-1.381-1.036-1.122-1.986-2.158-3.022-3.281-.777-.863-1.64-1.64-2.417-2.5l-2.331-2.331c-1.64-1.64-3.367-3.281-5.094-4.835l-2.331-2.072h0c1.64,4.748,3.54,9.5,4.489,14.417.259,1.295.432,2.5.6,3.712,2.331,17.007-3.194,28.144-11.827,42.82-.6,1.036-1.295,2.158-1.9,3.194a32.923,32.923,0,0,0-3.971,9.41c-.259.95-.432,1.9-.6,2.849,17.007,2.763,42.561,3.281,68.72-9.583,0,0-5.094-7.511-12.863-17.871-1.727-2.331-3.453-4.662-5.18-6.907A4.784,4.784,0,0,0,340.358,179.953Z" transform="translate(-168.991 -67.549)" fill="#e2066f"></path><path id="XMLID_1_" d="M292.064,241.831a29.466,29.466,0,0,1-3.022-2.935c-.432-.432-.777-.95-1.209-1.468-.345-.432-.6-.863-.95-1.295-.173-.345-.432-.6-.6-.95-.6-1.036-1.209-2.072-1.813-3.281A40.549,40.549,0,0,1,283,228.018a16.084,16.084,0,0,1-.6-2.935,27.929,27.929,0,0,1-.345-4.748,15.9,15.9,0,0,1,.259-2.849c.173-.95.345-1.9.6-2.849a36.8,36.8,0,0,1,3.971-9.41h0c.6-1.122,1.295-2.158,1.9-3.194,8.633-14.676,14.158-25.727,11.827-42.82-.173-1.209-.345-2.5-.6-3.712a12.973,12.973,0,0,1-.432,2.245v.173a8.966,8.966,0,0,1-.259,1.036c-3.8,11.137-10.014,19.856-18.561,29.094-1.122,1.295-2.331,2.5-3.626,3.8-2.072,2.158-4.317,4.4-6.561,6.648-.95.95-1.9,1.813-2.849,2.763-.863.863-2.072,2.072-3.367,3.453h0c-.777,2.245-1.727,4.835-2.5,7.511-.345-.173-.691-.259-1.036-.432A120.217,120.217,0,0,1,233.1,196.766a121.118,121.118,0,0,0,22.964,21.583,37.315,37.315,0,0,0,4.144,2.676c-.6,9.41,3.54,18.389,22.273,21.065a40.22,40.22,0,0,0,9.669.086c0-.173-.086-.259-.086-.345Z" transform="translate(-161.186 -69.859)"></path></g></g></g></g></svg>