<?xml version="1.0" encoding="UTF-8"?> <svg xmlns="http://www.w3.org/2000/svg" width="560" height="560" viewBox="0 0 560 560"><g id="Group_192" data-name="Group 192" transform="translate(3787 -9476)"><rect id="Rectangle_161" data-name="Rectangle 161" width="560" height="560" transform="translate(-3787 9476)" fill="none"></rect><g id="logo-sds-white" transform="translate(-4235.457 8540.104)"><circle id="Ellipse_2" data-name="Ellipse 2" cx="0.813" cy="0.813" r="0.813" transform="translate(600.192 1148.588)" fill="#fff"></circle><path id="Path_29" data-name="Path 29" d="M292.7,121.854a.574.574,0,1,0,.574-.574.574.574,0,0,0-.574.574Z" transform="translate(303.935 1027.543)" fill="#fff"></path><path id="Path_30" data-name="Path 30" d="M287.83,121.944a.358.358,0,1,0,.358-.358A.358.358,0,0,0,287.83,121.944Z" transform="translate(305.394 1027.444)" fill="#fff"></path><circle id="Ellipse_3" data-name="Ellipse 3" cx="0.813" cy="0.813" r="0.813" transform="translate(598.897 1151.283)" fill="#fff"></circle><path id="Path_31" data-name="Path 31" d="M290.85,125.754a.574.574,0,1,0,.574-.574.574.574,0,0,0-.574.574Z" transform="translate(304.489 1026.376)" fill="#fff"></path><path id="Path_32" data-name="Path 32" d="M286,125.844a.358.358,0,1,0,.358-.358A.358.358,0,0,0,286,125.844Z" transform="translate(305.944 1026.274)" fill="#fff"></path><path id="Path_33" data-name="Path 33" d="M298.16,129.484a.806.806,0,1,0,.232-.574A.806.806,0,0,0,298.16,129.484Z" transform="translate(302.299 1025.328)" fill="#fff"></path><path id="Path_34" data-name="Path 34" d="M293.08,129.584a.574.574,0,1,0,.574-.574A.574.574,0,0,0,293.08,129.584Z" transform="translate(303.821 1025.228)" fill="#fff"></path><path id="Path_35" data-name="Path 35" d="M288.21,129.678a.358.358,0,1,0,.358-.358.358.358,0,0,0-.358.358Z" transform="translate(305.281 1025.135)" fill="#fff"></path><g id="Group_7" data-name="Group 7" transform="translate(506.896 1132.274)"><path id="Path_36" data-name="Path 36" d="M397.024,137.872a48.436,48.436,0,0,0-9.725-19,55.144,55.144,0,0,0-19.213-14.538,65.22,65.22,0,0,0-27.463-6.491c-16.2-.176-32.442-.16-48.681-.147h-.853c-15.059.069-64.37.041-79.426.041h-41.6a54.064,54.064,0,0,0-19.843,3.661,47.58,47.58,0,0,0-27.47,24.866c-5.647,12.653-4.078,24.129,4.392,33.948A36.549,36.549,0,0,0,155.5,172.451c15.373.26,30.811.091,46.215.1,3.765,0,7.633-.147,9.725,4.9a7.843,7.843,0,0,1-1.751,8.555,13.208,13.208,0,0,1-10.02,3.7c-28.709,0-49.016,0-77.725-.041-1.882,0-1.882.609-2.858,2.1-1.882,3.5-3.451,6.695-4.9,9.747-2.353,4.9-4.5,9.412-7.423,14.563-1.324,2.318-.4,2.456,2.444,2.456h84.461c2.8,0,5.647-.21,8.5-.489a50.509,50.509,0,0,0,18.695-5.5,48.313,48.313,0,0,0,21.54-20.916,33.218,33.218,0,0,0,3.614-19.893,29.459,29.459,0,0,0-11.027-19.263,38.858,38.858,0,0,0-24-8.621c-9.264-.267-18.613-.1-27.922-.113-7,0-14,.041-21.02-.035a7.928,7.928,0,0,1-7.918-4.53,8.009,8.009,0,0,1,2.654-9.453,13.2,13.2,0,0,1,9.475-3.137c22.077,0,156.941-.289,168.257.176,12.521.511,21.666,5.6,26.811,14.858a26.845,26.845,0,0,1-1.785,28.332l-3.765,5.23h35.711l.54-.734a11.026,11.026,0,0,0,.941-1.462,39.072,39.072,0,0,0,2.535-5.6q.628-1.8,1.12-3.62a49.255,49.255,0,0,0,.392-25.9Z" transform="translate(-101.933 -97.652)" fill="#262a68"></path><path id="Path_37" data-name="Path 37" d="M582.051,152.4a38.883,38.883,0,0,0-24-8.621c-9.1-.267-18.325-.1-27.5-.113-7.144,0-14.29.041-21.421-.035a7.928,7.928,0,0,1-7.928-4.524,8.009,8.009,0,0,1,2.648-9.453,13.177,13.177,0,0,1,9.474-3.137c28.634,0,48.875,0,77.509.056,2.143,0,2.1-.38,3.075-2.325,1.961-4.041,3.733-7.627,5.685-11.47s4.047-7.843,6.7-12.835c.314-1.854-.267-2.3-2.353-2.29-15.059.069-30.118.041-45.176.041h-41.6a53.961,53.961,0,0,0-19.852,3.661,47.548,47.548,0,0,0-27.47,24.856c-5.647,12.646-4.1,24.129,4.376,33.954a36.561,36.561,0,0,0,28.358,12.235c15.357.26,30.811.091,46.215.1,1.045,0,2.1,0,3.137.085a7.555,7.555,0,0,1,4.9,13.305,13.155,13.155,0,0,1-10.055,3.74h-195c-1.854,0-1.882-.7-1.672-1.973L363.124,140.9h-32.7s-18.984,73.3-19.5,75.247c-.386,2.337-.38,2.337,2.394,2.337H540.881a98.847,98.847,0,0,0,10.322-.7,51.953,51.953,0,0,0,38.183-26.215,33.256,33.256,0,0,0,3.62-19.887A29.471,29.471,0,0,0,582.051,152.4Z" transform="translate(-163.249 -97.657)" fill="#262a68"></path><circle id="Ellipse_4" data-name="Ellipse 4" cx="13.089" cy="13.089" r="13.089" transform="translate(404.123 141.07)" fill="#262a68"></circle><path id="Path_38" data-name="Path 38" d="M497.221,312.2a16.348,16.348,0,0,1,6.588-13.089H113.6a13.089,13.089,0,1,0,0,26.168H503.816a16.336,16.336,0,0,1-6.588-13.079Z" transform="translate(-100.161 -158.039)" fill="#98ca3c"></path></g></g></g></svg> 